nColumns=19
nRows=33
DataType=double
version=3
OpenSimVersion=4.1
endheader
time	ground_force_calcn_l_vx	ground_force_calcn_l_vy	ground_force_calcn_l_vz	ground_force_calcn_l_px	ground_force_calcn_l_py	ground_force_calcn_l_pz	ground_force_calcn_l_mx	ground_force_calcn_l_my	ground_force_calcn_l_mz	ground_force_calcn_r_vx	ground_force_calcn_r_vy	ground_force_calcn_r_vz	ground_force_calcn_r_px	ground_force_calcn_r_py	ground_force_calcn_r_pz	ground_force_calcn_r_mx	ground_force_calcn_r_my	ground_force_calcn_r_mz
2.8075	-4.66337	73.2771	2.07027	-0.348615	-3.86784e-17	0.26299	-0.0381179	0.598959	0.0169222	5.92707	614.102	54.2766	-0.21079	-2.3477e-17	-0.22759	-0.0450916	-4.67192	-0.412922
2.8175	-4.38082	72.743	2.01294	-0.349805	-3.881e-17	0.263755	-0.0372269	0.618147	0.0171053	7.34442	613.67	53.6559	-0.212506	-2.36652e-17	-0.228089	-0.0546923	-4.56987	-0.399563
2.82749	-4.03528	72.2258	1.91967	-0.350952	-3.89378e-17	0.264623	-0.0351151	0.628511	0.016705	8.51678	613.852	53.0445	-0.214061	-2.38359e-17	-0.228529	-0.0623696	-4.49533	-0.388453
2.83748	-3.65233	71.7082	1.79343	-0.352131	-3.907e-17	0.265537	-0.032101	0.630257	0.0157628	9.48191	614.602	52.4245	-0.215473	-2.39906e-17	-0.228915	-0.068377	-4.43209	-0.37805
2.84747	-3.24827	71.1984	1.64646	-0.353324	-3.92043e-17	0.266441	-0.0284778	0.624202	0.0144346	10.2945	615.829	51.809	-0.216759	-2.41316e-17	-0.229245	-0.0732252	-4.38044	-0.368521
2.85746	-2.84038	70.7082	1.49627	-0.354433	-3.93296e-17	0.267331	-0.0246243	0.612997	0.0129718	11.0125	617.44	51.2145	-0.217938	-2.42605e-17	-0.229521	-0.0772101	-4.32895	-0.359072
2.86745	-2.45251	70.2627	1.36578	-0.355397	-3.94386e-17	0.26819	-0.0208996	0.598759	0.0116388	11.6506	619.376	50.6624	-0.219006	-2.43771e-17	-0.229761	-0.0801678	-4.26192	-0.348608
2.87744	-2.11227	69.9021	1.27525	-0.356171	-3.9526e-17	0.269034	-0.0176994	0.585733	0.0106857	12.2163	621.576	50.1839	-0.219955	-2.44799e-17	-0.229988	-0.081791	-4.16158	-0.335992
2.88743	-1.81294	69.6639	1.24701	-0.356658	-3.95804e-17	0.269845	-0.0151361	0.581617	0.0104112	12.7268	623.966	49.8072	-0.220785	-2.45691e-17	-0.230216	-0.0819759	-4.01908	-0.320817
2.89742	-1.55437	69.5754	1.29979	-0.356887	-3.96049e-17	0.270619	-0.0131455	0.588407	0.0109925	13.1953	626.473	49.566	-0.221495	-2.46445e-17	-0.230456	-0.0806445	-3.82875	-0.302928
2.90742	-1.34774	69.6568	1.45206	-0.35707	-3.96226e-17	0.271345	-0.0116937	0.604381	0.0125989	13.6185	629.016	49.4699	-0.22209	-2.47067e-17	-0.230712	-0.0776622	-3.5871	-0.282113
2.91741	-1.19392	69.9111	1.71173	-0.357288	-3.96422e-17	0.271971	-0.0108362	0.634521	0.0155358	14.001	631.521	49.4965	-0.222586	-2.47575e-17	-0.230988	-0.0731529	-3.29959	-0.258611
2.9274	-1.07895	70.3295	2.08788	-0.357488	-3.96576e-17	0.272587	-0.0103232	0.672903	0.0199766	14.3321	633.894	49.6347	-0.223001	-2.4799e-17	-0.231282	-0.0674164	-2.98176	-0.233475
2.93739	-1.00318	70.9099	2.5817	-0.357568	-3.96574e-17	0.273199	-0.0100786	0.712405	0.0259374	14.5845	636.063	49.8761	-0.223348	-2.48327e-17	-0.231598	-0.060543	-2.64042	-0.207045
2.94738	-0.958333	71.6432	3.17659	-0.357549	-3.96448e-17	0.273862	-0.00994647	0.74358	0.0329696	14.7281	637.996	50.2175	-0.223634	-2.48596e-17	-0.231941	-0.0526649	-2.28135	-0.179568
2.95737	-0.922184	72.5281	3.85198	-0.35753	-3.96313e-17	0.274592	-0.00977766	0.768995	0.0408414	14.7608	639.685	50.6484	-0.223866	-2.48804e-17	-0.232312	-0.0441784	-1.91455	-0.151589
2.96736	-0.864353	73.579	4.57475	-0.357425	-3.9608e-17	0.275403	-0.00928603	0.790483	0.049148	14.6706	641.141	51.1428	-0.224048	-2.48956e-17	-0.232709	-0.0351448	-1.53592	-0.122518
2.97735	-0.753816	74.8258	5.30507	-0.357051	-3.95553e-17	0.276253	-0.00817729	0.811699	0.0575486	14.457	642.381	51.6775	-0.224186	-2.49057e-17	-0.233123	-0.0259426	-1.15273	-0.0927333
2.98734	-0.545727	76.2817	6.00809	-0.356282	-3.94597e-17	0.27717	-0.00596363	0.833597	0.0656556	14.1408	643.41	52.23	-0.224283	-2.49114e-17	-0.233543	-0.0172468	-0.784729	-0.0637018
2.99734	-0.209954	77.9495	6.64051	-0.355227	-3.93346e-17	0.278095	-0.00229717	0.85287	0.072656	13.7315	644.225	52.7669	-0.224352	-2.49144e-17	-0.233958	-0.00947966	-0.444747	-0.0364281
3.00733	0.259761	79.85	7.18334	-0.354096	-3.92052e-17	0.279055	0.00279076	0.857873	0.0771746	13.226	644.821	53.2703	-0.224412	-2.49166e-17	-0.234357	-0.00266659	-0.130008	-0.0107403
3.01732	0.889385	82.0086	7.5996	-0.352844	-3.90683e-17	0.280076	0.00909819	0.838927	0.077742	12.6374	645.218	53.717	-0.224467	-2.49185e-17	-0.234729	0.00314307	0.160474	0.0133601
3.02731	1.70756	84.4377	7.84947	-0.351302	-3.89065e-17	0.281206	0.015844	0.783474	0.0728332	11.9645	645.444	54.083	-0.22452	-2.49204e-17	-0.235068	0.00805373	0.434471	0.0364052
3.0373	2.74458	87.1079	7.89717	-0.349504	-3.87244e-17	0.282471	0.0213642	0.678059	0.0614726	11.184	645.542	54.34	-0.224574	-2.49226e-17	-0.235377	0.0121259	0.699905	0.0589162
3.04729	4.04022	89.9554	7.72777	-0.347491	-3.8525e-17	0.28393	0.0229697	0.51142	0.0439343	10.2973	645.576	54.4689	-0.224639	-2.49262e-17	-0.235646	0.0150978	0.946533	0.0798614
3.05728	5.61954	92.8748	7.33092	-0.345368	-3.8317e-17	0.285594	0.0170916	0.282474	0.0222967	9.32077	645.588	54.4719	-0.224705	-2.49304e-17	-0.235869	0.0168701	1.16848	0.098591
3.06727	7.48197	95.7518	6.72929	-0.343148	-3.80986e-17	0.287502	-0.00146997	-0.0188122	-0.0013221	8.25454	645.59	54.3611	-0.224749	-2.49323e-17	-0.236041	0.0174723	1.36651	0.115065
3.07726	9.58983	98.4893	5.95273	-0.340895	-3.78733e-17	0.289587	-0.0376336	-0.386504	-0.0233604	7.11987	645.588	54.1445	-0.224735	-2.49284e-17	-0.236154	0.0169817	1.5398	0.129141
3.08726	11.8771	101.013	5.02506	-0.338729	-3.76506e-17	0.291714	-0.0948375	-0.806581	-0.0401247	5.93826	645.579	53.8277	-0.224654	-2.49175e-17	-0.236203	0.0154938	1.68441	0.140445
3.09725	14.2445	103.285	3.97898	-0.336811	-3.74457e-17	0.293753	-0.173953	-1.26131	-0.048591	4.71443	645.533	53.4229	-0.224496	-2.48982e-17	-0.236182	0.0132508	1.81439	0.150155
3.10724	16.5785	105.279	2.84394	-0.335225	-3.72667e-17	0.295545	-0.272149	-1.72824	-0.0466855	3.45619	645.385	52.9376	-0.224238	-2.48681e-17	-0.236091	0.0103791	1.93812	0.158974
3.11723	18.7715	106.989	1.65422	-0.333935	-3.71092e-17	0.296982	-0.382117	-2.17789	-0.0336737	2.1796	645.04	52.3722	-0.223869	-2.48257e-17	-0.235931	0.00694739	2.05604	0.166934
3.12722	20.7333	108.428	0.438084	-0.332862	-3.69659e-17	0.298018	-0.495497	-2.59128	-0.0104696	0.874125	644.359	51.7277	-0.223391	-2.47713e-17	-0.235707	0.00294853	2.1735	0.174484
